<?xml version="1.0" standalone="no"?>
<!DOCTYPE svg PUBLIC "-//W3C//DTD SVG 20010904//EN"
 "http://www.w3.org/TR/2001/REC-SVG-20010904/DTD/svg10.dtd">
<svg version="1.0" xmlns="http://www.w3.org/2000/svg"
 width="500.000000pt" height="500.000000pt" viewBox="0 0 500.000000 500.000000"
 preserveAspectRatio="xMidYMid meet">

<g transform="translate(0.000000,500.000000) scale(0.100000,-0.100000)"
fill="#000000" stroke="none">
<path d="M0 2500 l0 -2500 359 0 c278 0 360 3 364 13 4 9 6 9 6 0 1 -16 261
-19 261 -3 0 5 36 39 81 74 l81 64 66 -30 c37 -17 127 -50 200 -74 l132 -44
799 0 799 0 28 33 c16 18 36 42 44 55 l15 22 80 -53 80 -52 803 -3 802 -2 0
2500 0 2500 -2500 0 -2500 0 0 -2500z m1243 1883 c-13 -2 -33 -2 -45 0 -13 2
-3 4 22 4 25 0 35 -2 23 -4z m1439 0 c-259 -2 -685 -2 -945 0 -259 1 -47 2
473 2 520 0 732 -1 472 -2z m-1523 -20 c-12 -13 -15 -143 -19 -712 l-5 -696
-3 690 c-2 611 0 693 14 713 8 12 18 22 21 22 3 0 -1 -7 -8 -17z m2034 10 c-7
-2 -19 -2 -25 0 -7 3 -2 5 12 5 14 0 19 -2 13 -5z m68 -40 c13 -16 12 -17 -3
-4 -17 13 -22 21 -14 21 2 0 10 -8 17 -17z m117 -87 c3 -5 -16 6 -42 24 -26
19 -50 39 -54 44 -3 5 16 -6 42 -24 26 -19 50 -39 54 -44z m-310 -148 l-3
-163 -599 -3 c-539 -2 -602 -1 -624 14 -27 17 -357 278 -382 300 -12 12 113
14 798 14 l812 0 -2 -162z m-1545 -63 l227 -179 -2 -406 -3 -405 -242 -3 -243
-2 0 600 c0 579 1 601 18 588 10 -7 120 -94 245 -193z m1888 188 c13 -16 12
-17 -3 -4 -17 13 -22 21 -14 21 2 0 10 -8 17 -17z m117 -87 c3 -5 -16 6 -42
24 -26 19 -50 39 -54 44 -3 5 16 -6 42 -24 26 -19 50 -39 54 -44z m-141 -67
c87 -61 165 -118 173 -125 13 -13 -11 -14 -175 -12 l-190 3 -3 109 c-3 103 4
136 29 136 5 0 80 -50 166 -111z m174 44 c13 -16 12 -17 -3 -4 -17 13 -22 21
-14 21 2 0 10 -8 17 -17z m117 -87 c3 -5 -16 6 -42 24 -26 19 -50 39 -54 44
-3 5 16 -6 42 -24 26 -19 50 -39 54 -44z m33 -23 c13 -16 12 -17 -3 -4 -17 13
-22 21 -14 21 2 0 10 -8 17 -17z m40 -30 c13 -16 12 -17 -3 -4 -17 13 -22 21
-14 21 2 0 10 -8 17 -17z m70 -60 c13 -16 12 -17 -3 -4 -17 13 -22 21 -14 21
2 0 10 -8 17 -17z m16 -926 c-1 -166 -2 -30 -2 303 0 333 1 469 2 302 2 -166
2 -438 0 -605z m-769 435 l2 -382 -597 2 -598 3 -3 370 c-1 203 0 376 3 383 3
10 127 12 597 10 l593 -3 3 -383z m642 -132 c0 -410 -3 -520 -12 -519 -7 0
-123 50 -258 112 l-245 112 -3 395 c-1 217 0 401 3 407 3 10 64 13 260 13
l255 0 0 -520z m-2549 -357 c13 -16 12 -17 -3 -4 -10 7 -18 15 -18 17 0 8 8 3
21 -13z m587 -80 c2 -35 0 -63 -4 -63 -10 0 -224 121 -224 126 0 3 51 3 113 2
l112 -3 3 -62z m1365 43 c18 -13 86 -56 152 -96 66 -40 127 -79 135 -87 12
-11 -109 -13 -746 -13 -578 0 -763 3 -772 12 -13 13 -17 189 -5 201 3 4 276 7
605 7 l599 0 32 -24z m-1858 -16 c3 -6 -1 -7 -9 -4 -18 7 -21 14 -7 14 6 0 13
-4 16 -10z m10 -96 c-26 -20 -55 -36 -55 -30 0 5 63 46 70 46 3 -1 -4 -8 -15
-16z m-80 -50 c-26 -20 -55 -36 -55 -30 0 5 63 46 70 46 3 -1 -4 -8 -15 -16z
m501 -71 c33 -18 68 -43 78 -58 l17 -26 882 1 c999 1 897 11 918 -89 6 -31 17
-69 24 -86 8 -16 19 -48 24 -71 7 -25 27 -57 55 -85 38 -39 45 -53 53 -105 32
-227 -28 -604 -144 -902 -55 -143 -99 -283 -113 -363 -6 -33 -16 -72 -22 -85
-16 -34 -195 -154 -231 -154 -15 0 -56 -18 -92 -40 -60 -38 -67 -40 -117 -34
-40 4 -58 12 -74 31 -17 19 -28 24 -46 20 -41 -11 -77 -46 -84 -82 -6 -33 -8
-35 -48 -35 -159 0 -399 90 -604 227 -150 101 -442 347 -442 373 0 4 75 118
167 252 91 133 171 254 176 269 8 21 -8 80 -94 345 -101 311 -105 319 -136
334 -18 8 -33 18 -33 23 0 21 -69 108 -93 118 -27 11 -45 48 -33 68 4 5 -23
55 -59 111 -36 55 -65 102 -65 105 0 5 51 -19 136 -62z m-155 -144 l126 -200
-61 -58 c-141 -132 -184 -165 -329 -247 l-152 -86 -65 16 c-131 33 -270 79
-270 90 0 6 45 103 101 216 l100 205 207 132 c114 73 209 132 212 132 3 0 62
-90 131 -200z m-456 145 c-26 -20 -55 -36 -55 -30 0 5 63 46 70 46 3 -1 -4 -8
-15 -16z m-80 -50 c-26 -20 -55 -36 -55 -30 0 5 63 46 70 46 3 -1 -4 -8 -15
-16z m2835 -8 c0 -2 -8 -10 -17 -17 -16 -13 -17 -12 -4 4 13 16 21 21 21 13z
m-52 -33 c-10 -2 -28 -2 -40 0 -13 2 -5 4 17 4 22 1 32 -1 23 -4z m-2947 -142
c-36 -71 -67 -128 -69 -126 -7 6 122 255 132 255 1 0 -27 -58 -63 -129z m2876
97 c-3 -8 -6 -5 -6 6 -1 11 2 17 5 13 3 -3 4 -12 1 -19z m10 -50 c-3 -8 -6 -5
-6 6 -1 11 2 17 5 13 3 -3 4 -12 1 -19z m10 -40 c-3 -8 -6 -5 -6 6 -1 11 2 17
5 13 3 -3 4 -12 1 -19z m10 -40 c-3 -8 -6 -5 -6 6 -1 11 2 17 5 13 3 -3 4 -12
1 -19z m67 -78 c20 -22 36 -43 36 -47 0 -4 -14 9 -31 30 -16 20 -38 41 -47 47
-9 5 -12 10 -6 10 7 0 28 -18 48 -40z m53 -122 c-3 -8 -6 -5 -6 6 -1 11 2 17
5 13 3 -3 4 -12 1 -19z m10 -50 c-3 -7 -5 -2 -5 12 0 14 2 19 5 13 2 -7 2 -19
0 -25z m-2043 -145 c27 -82 64 -194 82 -250 l32 -103 -165 -242 c-91 -134
-171 -248 -177 -254 -11 -11 -484 -49 -494 -40 -9 9 33 102 78 170 26 39 59
92 74 118 l28 47 -11 126 c-19 223 -29 195 105 315 87 79 148 124 247 182 73
42 137 77 142 77 6 1 33 -65 59 -146z m2053 -55 c-2 -35 -3 -7 -3 62 0 69 1
97 3 63 2 -35 2 -91 0 -125z m-3231 103 c-9 -16 -16 -41 -16 -55 0 -14 -4 -27
-9 -30 -4 -3 -5 11 -1 32 8 40 31 95 37 88 3 -2 -3 -18 -11 -35z m-65 -178
c-12 -20 -14 -14 -5 12 4 9 9 14 11 11 3 -2 0 -13 -6 -23z m359 -43 l155 -57
3 -140 3 -140 -42 -114 c-23 -63 -62 -145 -86 -183 l-44 -69 -52 6 c-29 3 -91
9 -139 13 l-87 7 -46 136 c-25 75 -45 143 -45 152 0 15 152 428 165 449 9 14
39 5 215 -60z m2927 -37 c-2 -16 -4 -5 -4 22 0 28 2 40 4 28 2 -13 2 -35 0
-50z m-3316 0 c-12 -20 -14 -14 -5 12 4 9 9 14 11 11 3 -2 0 -13 -6 -23z
m3306 -75 c-3 -7 -5 -2 -5 12 0 14 2 19 5 13 2 -7 2 -19 0 -25z m-3336 -5
c-12 -20 -14 -14 -5 12 4 9 9 14 11 11 3 -2 0 -13 -6 -23z m3326 -55 c-3 -7
-5 -2 -5 12 0 14 2 19 5 13 2 -7 2 -19 0 -25z m-10 -50 c-3 -7 -5 -2 -5 12 0
14 2 19 5 13 2 -7 2 -19 0 -25z m-10 -60 c-3 -7 -5 -2 -5 12 0 14 2 19 5 13 2
-7 2 -19 0 -25z m-3400 -125 c-3 -10 -5 -2 -5 17 0 19 2 27 5 18 2 -10 2 -26
0 -35z m3370 15 c-3 -8 -6 -5 -6 6 -1 11 2 17 5 13 3 -3 4 -12 1 -19z m-10
-40 c-3 -8 -6 -5 -6 6 -1 11 2 17 5 13 3 -3 4 -12 1 -19z m-10 -40 c-3 -8 -6
-5 -6 6 -1 11 2 17 5 13 3 -3 4 -12 1 -19z m-66 -185 c-12 -20 -14 -14 -5 12
4 9 9 14 11 11 3 -2 0 -13 -6 -23z m-3142 -124 c13 -11 19 -19 14 -19 -24 0
-75 87 -72 124 0 6 8 -11 18 -38 9 -27 27 -57 40 -67z m3102 24 c-11 -21 -20
-35 -21 -31 0 12 33 78 38 74 2 -2 -6 -21 -17 -43z m-2993 -50 c-10 -2 -28 -2
-40 0 -13 2 -5 4 17 4 22 1 32 -1 23 -4z m100 -10 c-10 -2 -28 -2 -40 0 -13 2
-5 4 17 4 22 1 32 -1 23 -4z m856 -12 c17 -19 17 -21 -5 -50 -13 -17 -24 -31
-26 -31 -6 0 7 22 25 42 20 23 2 45 -41 51 l-32 4 31 1 c19 1 37 -5 48 -17z
m-756 2 c-10 -2 -28 -2 -40 0 -13 2 -5 4 17 4 22 1 32 -1 23 -4z m610 0 c-16
-2 -40 -2 -55 0 -16 2 -3 4 27 4 30 0 43 -2 28 -4z m-458 -22 l55 -8 -45 -1
c-25 -1 -63 5 -85 14 -29 11 -32 13 -10 9 17 -4 55 -10 85 -14z m318 12 c-16
-2 -40 -2 -55 0 -16 2 -3 4 27 4 30 0 43 -2 28 -4z m-150 -10 c-16 -2 -40 -2
-55 0 -16 2 -3 4 27 4 30 0 43 -2 28 -4z m2402 -53 c-11 -22 -23 -40 -25 -40
-3 0 4 18 15 40 11 22 23 40 25 40 3 0 -4 -18 -15 -40z m-2020 -60 c-6 -11
-13 -20 -16 -20 -2 0 0 9 6 20 6 11 13 20 16 20 2 0 0 -9 -6 -20z m1954 -49
c-9 -15 -32 -46 -51 -67 -23 -27 -19 -18 14 29 50 70 66 87 37 38z m-1648 -47
c180 -150 425 -292 599 -347 121 -38 119 -38 284 -43 151 -4 154 -5 190 -33
20 -16 49 -43 64 -59 25 -26 27 -34 21 -68 -9 -51 -46 -86 -117 -112 -51 -19
-203 -51 -263 -56 -12 0 -31 -9 -41 -19 -26 -22 -46 -22 -68 3 -13 15 -31 20
-65 20 -234 0 -705 85 -1006 181 -152 48 -148 40 -47 120 119 95 183 171 282
338 46 78 85 141 87 141 1 0 37 -30 80 -66z m-366 -4 c-6 -11 -13 -20 -16 -20
-2 0 0 9 6 20 6 11 13 20 16 20 2 0 0 -9 -6 -20z m-50 -80 c-6 -11 -13 -20
-16 -20 -2 0 0 9 6 20 6 11 13 20 16 20 2 0 0 -9 -6 -20z m1920 -46 c-36 -36
-83 -80 -105 -97 -22 -17 5 12 60 65 114 111 141 130 45 32z m-1940 13 c0 -1
-24 -25 -52 -52 l-53 -50 50 53 c46 48 55 57 55 49z m-145 -133 c-40 -36 -107
-86 -92 -68 14 15 122 103 127 103 3 0 -13 -16 -35 -35z m1920 -20 c-26 -20
-55 -36 -55 -30 0 5 63 46 70 46 3 -1 -4 -8 -15 -16z m94 -183 c35 -28 78 -60
97 -72 19 -11 34 -23 34 -26 0 -22 -287 209 -299 241 -2 6 20 -12 50 -41 30
-28 83 -74 118 -102z m-2119 125 c0 -2 -8 -10 -17 -17 -16 -13 -17 -12 -4 4
13 16 21 21 21 13z m-103 -22 c-3 -3 -12 -4 -19 -1 -8 3 -5 6 6 6 11 1 17 -2
13 -5z m57 -16 c-3 -4 -11 -5 -19 -1 -21 7 -19 12 4 10 11 0 18 -5 15 -9z
m-136 -15 c-8 -10 -20 -27 -26 -38 -6 -11 -12 -15 -12 -9 0 12 38 64 47 64 3
0 -1 -8 -9 -17z m-39 -116 c-2 -2 -29 -22 -59 -46 l-55 -43 50 46 c28 25 54
46 59 46 5 0 7 -1 5 -3z m2547 -95 c-5 -4 -66 26 -66 33 0 3 16 -3 35 -12 19
-9 33 -18 31 -21z m-2706 -37 c-24 -25 -46 -45 -49 -45 -3 0 15 20 39 45 24
25 46 45 49 45 3 0 -15 -20 -39 -45z m2775 15 c13 -6 15 -9 5 -9 -8 0 -22 4
-30 9 -18 12 -2 12 25 0z m73 -17 c-10 -2 -26 -2 -35 0 -10 3 -2 5 17 5 19 0
27 -2 18 -5z m53 -13 c25 -14 49 -62 48 -97 -2 -27 -2 -27 -6 -3 -8 48 -26 81
-52 95 -14 8 -22 14 -18 15 5 0 17 -5 28 -10z m-2969 -69 c-9 -16 -18 -28 -21
-26 -4 5 27 55 34 55 2 0 -4 -13 -13 -29z"/>
<path d="M2665 2393 c-22 -2 -98 -10 -170 -18 -71 -8 -166 -17 -210 -21 -80
-7 -103 -18 -84 -40 11 -14 26 -13 314 17 105 10 215 20 245 22 48 2 55 5 55
22 0 17 -7 20 -55 21 -30 1 -73 -1 -95 -3z"/>
<path d="M3170 2376 c-62 -16 -120 -53 -120 -77 0 -26 19 -24 76 9 45 25 57
27 159 27 98 0 116 -3 163 -26 28 -14 52 -25 52 -23 0 2 -9 19 -21 38 -15 26
-31 38 -57 45 -62 15 -204 19 -252 7z"/>
<path d="M2405 2294 c-86 -20 -134 -43 -172 -81 -38 -38 -43 -48 -43 -88 0
-40 5 -50 43 -88 59 -59 132 -82 262 -82 130 0 203 23 263 82 37 38 42 48 42
88 0 40 -5 50 -43 88 -55 55 -125 79 -242 83 -49 2 -99 1 -110 -2z m236 -66
c104 -36 138 -101 84 -158 -32 -33 -122 -70 -173 -70 l-37 0 0 105 c0 70 -4
108 -12 117 -41 40 34 44 138 6z m-231 14 c0 -4 -6 -14 -12 -21 -9 -8 -13 -45
-13 -112 0 -54 -3 -99 -7 -99 -20 0 -96 41 -117 63 -49 53 -15 116 84 156 57
23 65 24 65 13z"/>
<path d="M3148 2272 c-26 -9 -63 -32 -83 -50 -73 -69 -29 -159 96 -197 33 -10
64 -24 70 -32 14 -17 49 -17 74 0 11 7 48 21 82 31 127 38 172 128 98 198 -49
46 -114 66 -210 66 -49 0 -98 -6 -127 -16z m57 -49 c-5 -10 -10 -48 -13 -85
-2 -38 -9 -68 -14 -68 -22 0 -80 34 -94 56 -25 37 1 69 81 101 42 16 48 16 40
-4z m213 -10 c87 -41 71 -104 -34 -140 l-32 -11 -4 71 c-3 40 -9 81 -13 91 -7
17 -5 18 21 12 16 -4 44 -15 62 -23z"/>
<path d="M2670 1800 c-7 -4 -10 -14 -7 -22 4 -11 30 -17 93 -22 109 -8 155
-20 178 -45 17 -18 17 -23 2 -74 -32 -109 -14 -141 85 -152 53 -6 59 -9 59
-30 0 -12 -18 -42 -39 -67 -27 -30 -37 -49 -31 -58 21 -35 102 47 116 117 8
42 -30 83 -78 83 -18 0 -44 3 -56 7 -21 5 -23 10 -18 42 20 120 19 138 -7 165
-14 14 -49 31 -78 40 -65 17 -200 27 -219 16z"/>
<path d="M3135 993 c-3 -16 -14 -36 -22 -46 -55 -60 -322 -48 -625 28 -100 26
-127 24 -115 -7 6 -16 220 -69 377 -94 147 -23 302 -16 360 17 45 25 70 62 70
104 0 36 -35 34 -45 -2z"/>
</g>
</svg>
